<svg width="50" height="50" viewBox="0 0 50 50" fill="none" xmlns="http://www.w3.org/2000/svg">
<path d="M19.7375 10.8521C19.7375 10.8521 10.3604 20.2375 6.70833 23.8917C6.40208 24.1958 6.25 24.5958 6.25 24.9958C6.25 25.3958 6.40208 25.7958 6.70833 26.1C10.3583 29.7542 19.7333 39.1354 19.7333 39.1354C20.0354 39.4375 20.4333 39.5875 20.8312 39.5875C21.2292 39.5854 21.6292 39.4333 21.9354 39.1271C22.5458 38.5167 22.5479 37.5312 21.9437 36.925L11.5771 26.5583H42.1854C43.0479 26.5583 43.7479 25.8583 43.7479 24.9958C43.7479 24.1333 43.0479 23.4333 42.1854 23.4333H11.5771L21.9479 13.0604C22.55 12.4583 22.5458 11.475 21.9354 10.8646C21.6292 10.5583 21.2292 10.4042 20.8312 10.4042C20.4333 10.4021 20.0396 10.5521 19.7375 10.8521Z" fill="white"/>
</svg>
