<svg width="22" height="24" viewBox="0 0 22 24" fill="none" xmlns="http://www.w3.org/2000/svg">
<path fill-rule="evenodd" clip-rule="evenodd" d="M17.923 24C15.521 24 14.147 22.109 13.415 19.771C13.149 18.911 12.897 17.985 11.683 16.75C9.469 14.495 8.519 11.921 8.519 9.39799C8.519 5.18999 11.835 1.99999 15.477 1.99999C19.794 1.99999 23.062 5.78199 20.915 11.689L19 11C20.691 6.16499 18.101 4.23599 15.418 4.18499C13.09 4.13999 10.99 6.19499 10.703 8.59499C10.453 10.689 11.001 13.222 13.003 15.143C14.738 16.807 14.974 17.909 15.291 19C16.022 21.516 17.174 21.903 17.996 21.849C19.919 21.722 20.756 19.704 18.94 17.41L20.762 16.385C21.603 17.624 21.993 18.957 22 20C22.016 22.45 20.061 24 17.923 24ZM5.656 17.411L4.269 19C1.657 16.677 0 13.286 0 9.49899C0 5.71199 1.657 2.32099 4.269 -0.00100708L5.656 1.58699C3.479 3.52299 2.096 6.34899 2.096 9.49899C2.096 12.649 3.479 15.474 5.656 17.411ZM6.096 9.49899C6.096 7.60799 6.925 5.91299 8.231 4.75099L6.845 3.16599C5.103 4.71399 4 6.97399 4 9.49899C4 12.024 5.103 14.284 6.845 15.832L8.231 14.247C6.925 13.085 6.096 11.389 6.096 9.49899ZM17.632 15.161C16.392 15.816 15.27 14.872 14.772 13.717C14.296 12.616 14.585 11.355 15.539 10.343C16.196 9.64599 16.561 8.81199 16.423 8.17599C16.372 7.93399 16.227 7.61099 15.839 7.45199C15.45 7.29099 15.047 7.34099 14.722 7.52199C14.2 7.81199 13.785 8.51699 13.642 9.36099L12.163 9.11099C12.385 7.80699 13.069 6.72299 13.994 6.21099C14.725 5.80599 15.595 5.72899 16.409 6.06399C17.173 6.37799 17.712 7.03299 17.891 7.86099C18.135 8.99599 17.64 10.301 16.629 11.373C18.689 11.887 18.941 14.363 17.632 15.161Z" fill="#DDD9D9"/>
</svg>
