<svg width="200" height="200" viewBox="0 0 200 200" fill="none" xmlns="http://www.w3.org/2000/svg">
<circle cx="100" cy="100" r="100" fill="#FFB801"/>
<path d="M59.5902 126.925C39.2715 137.3 21.2458 128.117 13.2542 105.688C56.1327 133.127 74.151 59.9464 87.8776 48.806C101.604 37.6656 119.05 51.7113 119.05 51.7113C119.05 51.7113 116.191 51.7164 112.376 53.66C108.561 55.6036 97.4171 68.5745 87.7758 88.3852C81.0974 104.782 69.1627 122.037 59.5902 126.925Z" fill="#FFFEFE"/>
<path d="M139.474 73.524C159.793 63.1489 177.818 72.3322 185.81 94.7607C142.931 67.3214 124.913 140.502 111.186 151.643C97.4597 162.783 80.0143 148.737 80.0143 148.737C80.0143 148.737 82.8733 148.732 86.6881 146.789C90.5029 144.845 101.647 131.874 111.288 112.064C117.967 95.667 129.901 78.4118 139.474 73.524Z" fill="#FFFEFE"/>
</svg>
